<svg width="127" height="58" viewBox="0 0 127 58" fill="none" xmlns="http://www.w3.org/2000/svg"><path fill-rule="evenodd" clip-rule="evenodd" d="M102.937 12.92L79.37 8.54c-.188-.037.926 2.735 3.21 7.991 1.922 4.426 3.498 8.094 3.501 8.152.011.208-6.335 2.669-8.452 3.277-13.756 3.953-27.951 2.66-42.982-3.913-9.902-4.331-19.336-10.67-28.698-19.283C2.25 1.361 1.541.766 1.214.786.578.824.47 1.179.822 2.076c.297.76 3.212 4.617 5.884 7.786 3.87 4.588 6.465 7.23 11.553 11.761 4.941 4.4 7.633 6.49 12.143 9.424 18.871 12.279 38.993 15.878 59.3 10.606 1.797-.466 3.301-.852 3.342-.858.041-.006 1.759 3.857 3.817 8.584 2.058 4.726 3.767 8.59 3.798 8.584.053-.01 25.078-39.843 25.406-40.438.119-.216-5.104-1.257-23.128-4.605z" fill="#fff"/></svg>