<svg width="45" height="45" viewBox="0 0 45 45" fill="none" xmlns="http://www.w3.org/2000/svg"><g filter="url(#filter0_d_234_1541)"><path fill="#fff" d="M5 5h35v35H5z"/></g><path d="M13 29.267v-.02a1.14 1.14 0 00.092-.075l6.083-6.088.08-.083c-.025-.027-.045-.05-.066-.07l-6.11-6.118a.65.65 0 00-.079-.057v-.041a.68.68 0 00.078-.058l3.575-3.579A.623.623 0 0016.71 13h.041c.02.03.043.058.067.085l6.087 6.096c.026.025.054.05.084.08.03-.027.055-.049.078-.072l6.101-6.111a.769.769 0 00.06-.078h.02L33 16.759l-6.275 6.275 6.229 6.227-3.723 3.727-6.254-6.246L16.727 33c-.13-.13-.255-.26-.382-.386L13 29.267z" fill="red"/><defs><filter id="filter0_d_234_1541" x="0" y="0" width="45" height="45" filterUnits="userSpaceOnUse" color-interpolation-filters="sRGB"><feFlood flood-opacity="0" result="BackgroundImageFix"/><feColorMatrix in="SourceAlpha" values="0 0 0 0 0 0 0 0 0 0 0 0 0 0 0 0 0 0 127 0" result="hardAlpha"/><feOffset/><feGaussianBlur stdDeviation="2.5"/><feColorMatrix values="0 0 0 0 0 0 0 0 0 0 0 0 0 0 0 0 0 0 0.2 0"/><feBlend in2="BackgroundImageFix" result="effect1_dropShadow_234_1541"/><feBlend in="SourceGraphic" in2="effect1_dropShadow_234_1541" result="shape"/></filter></defs></svg>