<svg width="32" height="32" viewBox="0 0 32 32" fill="none" xmlns="http://www.w3.org/2000/svg"><path d="M22.951 19.498c-.84-.828-1.888-.828-2.722 0A154.79 154.79 0 0018.33 21.4c-.171.177-.316.214-.524.097-.412-.225-.85-.407-1.246-.652-1.846-1.16-3.391-2.65-4.76-4.328-.68-.833-1.284-1.726-1.707-2.73-.085-.203-.07-.337.096-.502.637-.615 1.257-1.245 1.883-1.876.872-.876.872-1.902-.005-2.783-.498-.502-.995-.994-1.492-1.496-.514-.513-1.022-1.031-1.54-1.539-.84-.817-1.889-.817-2.723.005-.642.63-1.257 1.277-1.91 1.897-.604.572-.909 1.272-.973 2.09-.102 1.33.224 2.585.684 3.809.942 2.532 2.375 4.781 4.113 6.844 2.348 2.789 5.151 4.995 8.43 6.587 1.476.716 3.006 1.267 4.67 1.357 1.144.064 2.139-.224 2.936-1.116.545-.61 1.16-1.165 1.738-1.747.856-.866.861-1.913.01-2.768a799.782 799.782 0 00-3.059-3.05zm-.099-4.416h.001a1 1 0 00.79-1.275 8.834 8.834 0 00-2.206-3.659A8.775 8.775 0 0017.52 7.87a1.002 1.002 0 00-1.258.825v.003a1 1 0 00.728 1.103 6.81 6.81 0 013.036 1.763 6.788 6.788 0 011.7 2.82c.148.483.628.784 1.126.698zm2.164-8.412a14.546 14.546 0 00-7.288-3.97 1 1 0 00-1.2.838v.004a.996.996 0 00.772 1.114c2.39.51 4.554 1.687 6.304 3.43a12.594 12.594 0 013.346 5.909.999.999 0 001.139.741.999.999 0 00.803-1.222 14.642 14.642 0 00-3.876-6.844z" fill="#DCA81C"/></svg>