<svg width="20" height="20" viewBox="0 0 20 20" fill="none" xmlns="http://www.w3.org/2000/svg">
<path d="M11.9141 10C11.9141 11.057 11.057 11.9141 10 11.9141C8.94297 11.9141 8.08594 11.057 8.08594 10C8.08594 8.94297 8.94297 8.08594 10 8.08594C11.057 8.08594 11.9141 8.94297 11.9141 10Z" fill="#E5AD1C"/>
<path d="M14.4762 6.6133C14.384 6.36408 14.2376 6.1383 14.0465 5.95314C13.8614 5.76252 13.6356 5.61564 13.3864 5.52346C13.184 5.44494 12.8801 5.35119 12.3204 5.3258C11.7149 5.29807 11.5333 5.29221 10 5.29221C8.46684 5.29221 8.2852 5.29807 7.67973 5.3258C7.11997 5.35158 6.81567 5.44494 6.61372 5.52346C6.36411 5.61564 6.13871 5.76213 5.95356 5.95314C5.76293 6.1383 5.61606 6.36408 5.52387 6.6133C5.44535 6.81564 5.3516 7.11955 5.32621 7.6797C5.29848 8.28517 5.29262 8.46681 5.29262 10C5.29262 11.5332 5.29848 11.7148 5.32621 12.3203C5.3516 12.8801 5.44535 13.184 5.52387 13.3863C5.61606 13.6359 5.76254 13.8613 5.95356 14.0465C6.13871 14.2371 6.3645 14.384 6.61372 14.4762C6.81606 14.5551 7.11997 14.6484 7.68012 14.6738C8.28559 14.7016 8.46684 14.7074 10.0004 14.7074C11.534 14.7074 11.7157 14.7016 12.3208 14.6738C12.8805 14.6484 13.1848 14.5547 13.3872 14.4762C13.8879 14.2828 14.2837 13.8871 14.477 13.3863C14.5555 13.184 14.6493 12.8801 14.6747 12.3203C14.7024 11.7148 14.7083 11.5332 14.7083 10C14.7083 8.46681 14.7024 8.28517 14.6747 7.6797C14.6485 7.11994 14.5551 6.81564 14.4762 6.6133ZM10 12.9484C8.37153 12.9484 7.05122 11.6285 7.05122 10C7.05122 8.3715 8.37153 7.05158 10 7.05158C11.6286 7.05158 12.9485 8.3715 12.9485 10C12.9485 11.6285 11.6286 12.9484 10 12.9484ZM13.0653 7.62384C12.6848 7.62384 12.3762 7.31525 12.3762 6.93478C12.3762 6.55431 12.6848 6.24572 13.0653 6.24572C13.4458 6.24572 13.7544 6.55431 13.7544 6.93478C13.7544 7.31525 13.4458 7.62384 13.0653 7.62384Z" fill="#E5AD1C"/>
<path d="M10 0C4.47813 0 0 4.47813 0 10C0 15.5219 4.47813 20 10 20C15.5219 20 20 15.5219 20 10C20 4.47813 15.5219 0 10 0ZM15.7074 12.3676C15.6797 12.9789 15.5824 13.3961 15.4406 13.7613C15.1422 14.5328 14.5324 15.1426 13.7613 15.4406C13.3961 15.5824 12.9785 15.6797 12.3676 15.7074C11.7551 15.7355 11.5598 15.7422 10 15.7422C8.44023 15.7422 8.24492 15.7355 7.63242 15.7074C7.02148 15.6797 6.60391 15.5824 6.23867 15.4406C5.85547 15.2965 5.5082 15.0703 5.22148 14.7781C4.9293 14.4914 4.70352 14.1441 4.55937 13.7609C4.41758 13.3957 4.32031 12.9781 4.29258 12.3672C4.26445 11.7551 4.25781 11.5594 4.25781 10C4.25781 8.44062 4.26445 8.24492 4.29258 7.63242C4.32031 7.02109 4.41758 6.60391 4.55937 6.23867C4.70352 5.85547 4.92969 5.5082 5.22187 5.22148C5.50859 4.9293 5.85586 4.70312 6.23906 4.55898C6.6043 4.41719 7.02187 4.31992 7.63281 4.29219C8.24531 4.26445 8.44063 4.25742 10.0004 4.25742C11.5602 4.25742 11.7555 4.26406 12.368 4.29219C12.9793 4.31992 13.3965 4.41719 13.7617 4.55859C14.1449 4.70273 14.4922 4.92891 14.7789 5.22109C15.0711 5.50781 15.2973 5.85508 15.441 6.23828C15.5832 6.60352 15.6801 7.02109 15.7082 7.63203C15.7359 8.24453 15.7426 8.43984 15.7426 9.99961C15.7426 11.5594 15.7355 11.7551 15.7074 12.3676Z" fill="#E5AD1C"/>
</svg>
