<svg xmlns="http://www.w3.org/2000/svg" width="65" height="65" viewBox="0 0 65 65" fill="none"><rect x="0.75" y="0.75" width="63.5" height="63.5" rx="31.75" stroke="white" stroke-width="1.5"></rect><path d="M26.172 48V25.2727M26.172 48L17 21.6364M26.172 48L32.8981 35.6364L26.172 25.2727M26.172 25.2727L17 21.6364M26.172 25.2727L32.8981 20.6364L23.3185 16L17 21.6364M26.172 25.2727H33.3057M39.828 48V25.2727M39.828 48L49 21.6364M39.828 48L33.1019 35.6364L39.828 25.2727M39.828 25.2727L49 21.6364M39.828 25.2727L33.1019 20.6364L42.6815 16L49 21.6364M39.828 25.2727H33.1019" stroke="white" stroke-width="1.5" stroke-linecap="round" stroke-linejoin="round"></path></svg>