<svg xmlns="http://www.w3.org/2000/svg" width="106" height="97" viewBox="0 0 106 97" fill="none"><rect x="27.999" width="50" height="50" rx="25" fill="#5CD8DF"></rect><path d="M47.0245 39V19.1136M47.0245 39L38.999 15.9318M47.0245 39L52.9099 28.1818L47.0245 19.1136M47.0245 19.1136L38.999 15.9318M47.0245 19.1136L52.9099 15.0568L44.5277 11L38.999 15.9318M47.0245 19.1136H53.2665M58.9735 39V19.1136M58.9735 39L66.999 15.9318M58.9735 39L53.0882 28.1818L58.9735 19.1136M58.9735 19.1136L66.999 15.9318M58.9735 19.1136L53.0882 15.0568L61.4704 11L66.999 15.9318M58.9735 19.1136H53.0882" stroke="white" stroke-width="1.2" stroke-linecap="round" stroke-linejoin="round"></path><path fill-rule="evenodd" clip-rule="evenodd" d="M3.32092 82.2145H0.523438V65.4993H3.32092V72.5336H11.2374V65.4993H14.0233V82.2145H11.2374V75.1569H3.32092V82.2145ZM29.0015 82.2145H18.2063V68.1226H21.0038V72.2434H27.6086V74.8667H21.0038V79.5911H29.0015V82.2145ZM18.2063 68.1226V65.4993H29.0015V68.1226H21.0038H18.2063ZM34.4333 82.2145H31.5543L33.5197 75.9811H36.3951H41.3284L38.8443 68.2039L37.2935 73.2854H34.4333L36.8245 65.4993H40.9221L46.192 82.2145H43.3133L42.1641 78.5928H35.5709L34.4333 82.2145ZM59.6311 82.2145H49.4511V65.4993H52.2486V79.5911H59.6311V82.2145ZM67.0271 82.2145H64.2296V68.1226H58.8204V65.4993H72.4363V68.1226H67.0271V82.2145ZM78.0188 82.2145H75.2213V65.4993H78.0188V72.5336H85.9353V65.4993H88.7211V82.2145H85.9353V75.1569H78.0188V82.2145ZM99.7994 75.3659V82.2145H96.9671V75.3659L98.3833 72.1621L102.214 65.4993H105.476L99.7994 75.3659ZM97.1181 69.9681L94.5411 65.4993H91.2793L95.6147 73.0198L97.1181 69.9681Z" fill="#173435"></path><path d="M27.0838 96.5009C27.732 96.5009 28.3387 96.3917 28.9037 96.1731C29.4687 95.9545 29.9243 95.6267 30.2703 95.1896C30.6207 94.7525 30.7959 94.2083 30.7959 93.557C30.7959 93.0893 30.7083 92.7024 30.5331 92.3965C30.3623 92.0861 30.1411 91.8369 29.8695 91.649C29.6024 91.4611 29.3242 91.3146 29.0351 91.2097C28.7504 91.1048 28.492 91.0218 28.2598 90.9606L26.5647 90.4885C26.3545 90.4317 26.1442 90.3617 25.934 90.2787C25.7238 90.1912 25.5486 90.0754 25.4084 89.9312C25.2682 89.7826 25.1981 89.5924 25.1981 89.3607C25.1981 89.1159 25.2792 88.9018 25.4412 88.7182C25.6077 88.5346 25.8245 88.3926 26.0917 88.292C26.3633 88.1915 26.6567 88.1456 26.9721 88.1543C27.4583 88.1674 27.8963 88.3095 28.2861 88.5805C28.676 88.8515 28.9212 89.2362 29.022 89.7345L30.7236 89.4394C30.5134 88.5652 30.082 87.8899 29.4293 87.4134C28.7767 86.9326 27.9642 86.6879 26.9918 86.6791C26.3523 86.6747 25.7697 86.7774 25.2441 86.9872C24.7229 87.1927 24.3068 87.5009 23.9958 87.9117C23.6892 88.3226 23.5359 88.8319 23.5359 89.4394C23.5359 89.8547 23.6038 90.2043 23.7396 90.4885C23.8798 90.7682 24.0572 90.9977 24.2718 91.1769C24.4908 91.3562 24.7207 91.4982 24.9616 91.6031C25.2069 91.708 25.4347 91.791 25.6449 91.8523L28.089 92.5735C28.7898 92.7833 29.1402 93.1461 29.1402 93.6619C29.1402 93.9504 29.046 94.1973 28.8577 94.4028C28.6738 94.6038 28.4329 94.7569 28.135 94.8618C27.8371 94.9667 27.5196 95.0191 27.1823 95.0191C26.6129 95.0191 26.1092 94.8661 25.6712 94.5602C25.2376 94.2542 24.9507 93.8215 24.8105 93.2619L23.168 93.5111C23.2687 94.1274 23.4965 94.6607 23.8513 95.1109C24.2104 95.5568 24.666 95.8999 25.2179 96.1403C25.7741 96.3807 26.3961 96.5009 27.0838 96.5009ZM34.8461 96.3042H36.3309V90.2525L39.2284 96.3042H39.8591L42.7631 90.2525V96.3042H44.2414V86.8627H42.8157L39.5437 93.5504L36.2718 86.8627H34.8461V96.3042ZM48.8467 96.3042H50.4301V86.8627H48.8467V96.3042ZM55.1572 96.3042H60.9192V94.8224H56.7406V86.8627H55.1572V96.3042ZM64.6609 96.3042H70.7712V94.8224H66.2444V92.1539H69.9828V90.6721H66.2444V88.3445H70.7712V86.8627H64.6609V96.3042ZM78.3876 96.5009C79.0356 96.5009 79.6425 96.3917 80.2076 96.1731C80.7726 95.9545 81.2276 95.6267 81.5742 95.1896C81.924 94.7525 82.0998 94.2083 82.0998 93.557C82.0998 93.0893 82.0119 92.7024 81.837 92.3965C81.6661 92.0861 81.4444 91.8369 81.1734 91.649C80.9056 91.4611 80.6281 91.3146 80.339 91.2097C80.054 91.1048 79.7953 91.0218 79.5637 90.9606L77.8686 90.4885C77.6583 90.4317 77.4481 90.3617 77.2379 90.2787C77.0276 90.1912 76.8519 90.0754 76.7123 89.9312C76.5718 89.7826 76.502 89.5924 76.502 89.3607C76.502 89.1159 76.5825 88.9018 76.7451 88.7182C76.911 88.5346 77.1278 88.3926 77.3955 88.292C77.6666 88.1915 77.9606 88.1456 78.2759 88.1543C78.7621 88.1674 79.1999 88.3095 79.59 88.5805C79.9793 88.8515 80.2248 89.2362 80.3258 89.7345L82.0275 89.4394C81.8173 88.5652 81.3853 87.8899 80.7332 87.4134C80.0803 86.9326 79.268 86.6879 78.2957 86.6791C77.6559 86.6747 77.0736 86.7774 76.548 86.9872C76.0265 87.1927 75.6101 87.5009 75.2997 87.9117C74.9925 88.3226 74.8397 88.8319 74.8397 89.4394C74.8397 89.8547 74.9071 90.2043 75.0434 90.4885C75.183 90.7682 75.3604 90.9977 75.5756 91.1769C75.7941 91.3562 76.024 91.4982 76.2655 91.6031C76.5102 91.708 76.7385 91.791 76.9488 91.8523L79.3929 92.5735C80.0934 92.7833 80.4441 93.1461 80.4441 93.6619C80.4441 93.9504 80.3496 94.1973 80.1616 94.4028C79.9776 94.6038 79.7362 94.7569 79.4389 94.8618C79.1407 94.9667 78.8229 95.0191 78.4862 95.0191C77.9162 95.0191 77.4128 94.8661 76.9751 94.5602C76.5414 94.2542 76.254 93.8215 76.1144 93.2619L74.4718 93.5111C74.572 94.1274 74.8003 94.6607 75.1551 95.1109C75.514 95.5568 75.9698 95.8999 76.5217 96.1403C77.0777 96.3807 77.6994 96.5009 78.3876 96.5009Z" fill="#173435"></path></svg>